<?xml version="1.0" ?><svg id="Layer_1" style="enable-background:new 0 0 128 128;" version="1.1" viewBox="0 0 128 128" xml:space="preserve" xmlns="http://www.w3.org/2000/svg" xmlns:xlink="http://www.w3.org/1999/xlink"><g><path d="M122.4,112.5h-4.1c-1.3-4.3-5.1-7.4-9.6-7.6c-2.2-5-7-8.2-12.5-8.2c-2.1,0-4,0.5-5.8,1.3v-4.3h24.2c0.7,0,1.4-0.4,1.7-1   c0.3-0.6,0.3-1.4-0.2-2l-16.4-22h11.8c0.7,0,1.4-0.4,1.7-1.1c0.3-0.6,0.2-1.4-0.2-2L97.6,46.2h6.4c0.7,0,1.4-0.4,1.7-1   c0.3-0.6,0.2-1.4-0.2-2L87.5,19.3c0,0,0,0-0.1-0.1c0,0-0.1-0.1-0.1-0.1c-0.1-0.1-0.1-0.1-0.2-0.2c0,0,0,0,0,0c0,0,0,0-0.1,0   c-0.1,0-0.1-0.1-0.2-0.1c0,0-0.1,0-0.1-0.1c-0.1,0-0.1-0.1-0.2-0.1c-0.1,0-0.1,0-0.2,0c-0.1,0-0.1,0-0.2,0c-0.1,0-0.1,0-0.2,0   s-0.1,0-0.2,0c-0.1,0-0.1,0-0.2,0c-0.1,0-0.1,0-0.2,0c-0.1,0-0.1,0-0.2,0.1c0,0-0.1,0-0.1,0.1c-0.1,0-0.1,0.1-0.2,0.1   c0,0,0,0-0.1,0c0,0,0,0,0,0c-0.1,0.1-0.1,0.1-0.2,0.2c0,0-0.1,0.1-0.1,0.1c0,0,0,0-0.1,0.1l-2.8,3.7L68,5.1c0,0,0,0-0.1-0.1   c0,0-0.1-0.1-0.1-0.1c-0.1-0.1-0.1-0.1-0.2-0.2c0,0,0,0,0,0c0,0,0,0-0.1,0c-0.1-0.1-0.1-0.1-0.2-0.1c0,0-0.1,0-0.1-0.1   c-0.1,0-0.1-0.1-0.2-0.1c0,0-0.1,0-0.1,0c-0.1,0-0.1,0-0.2,0c-0.1,0-0.1,0-0.2,0c-0.1,0-0.1,0-0.2,0c-0.1,0-0.1,0-0.2,0   c0,0-0.1,0-0.1,0c-0.1,0-0.1,0-0.2,0.1c0,0-0.1,0-0.1,0c-0.1,0-0.2,0.1-0.2,0.1c0,0,0,0-0.1,0c0,0,0,0,0,0   c-0.1,0.1-0.1,0.1-0.2,0.2c0,0-0.1,0.1-0.1,0.1c0,0,0,0-0.1,0.1L50.6,24.1l-3.7-4.8c0,0,0,0-0.1-0.1c0,0-0.1-0.1-0.1-0.1   c-0.1-0.1-0.1-0.1-0.2-0.2c0,0,0,0,0,0c0,0,0,0-0.1,0c-0.1,0-0.1-0.1-0.2-0.1c0,0-0.1,0-0.1-0.1c-0.1,0-0.1-0.1-0.2-0.1   c-0.1,0-0.1,0-0.2,0c-0.1,0-0.1,0-0.2,0c-0.1,0-0.1,0-0.2,0s-0.1,0-0.2,0c-0.1,0-0.1,0-0.2,0c-0.1,0-0.1,0-0.2,0   c-0.1,0-0.1,0-0.2,0.1c0,0-0.1,0-0.1,0.1c-0.1,0-0.1,0.1-0.2,0.1c0,0,0,0-0.1,0c0,0,0,0,0,0c-0.1,0.1-0.1,0.1-0.2,0.2   c0,0-0.1,0.1-0.1,0.1c0,0,0,0-0.1,0.1L25.9,43.2c-0.4,0.6-0.5,1.3-0.2,2c0.3,0.6,1,1,1.7,1h6.4L18.4,65.8c-0.4,0.6-0.5,1.3-0.2,2   c0.3,0.6,1,1.1,1.7,1.1h11.8l-16.4,22c-0.4,0.6-0.5,1.3-0.2,2c0.3,0.6,1,1,1.7,1H41v4.1c-1.7-0.7-3.5-1.1-5.4-1.1   c-6.4,0-11.9,4.5-13.3,10.6c-2.4,1-4.4,2.8-5.5,5.2h-6.1c-1,0-1.9,0.8-1.9,1.9c0,1,0.8,1.9,1.9,1.9H18h24.9H48h8.2h7.3h6.1h9h4.9   h5.1h28.3h5.6c1,0,1.9-0.8,1.9-1.9C124.3,113.4,123.5,112.5,122.4,112.5z M86.7,112.5h-1.4h-3.5c0.8-0.9,1.9-1.6,3.2-1.9   c0.7-0.2,1.2-0.8,1.4-1.5c0.7-4.9,4.9-8.5,9.8-8.5c4.4,0,8.2,2.8,9.5,6.9c0.3,0.8,1.1,1.4,1.9,1.3l0.4,0c0.1,0,0.1,0,0.2,0   c2.7,0,5,1.6,6.1,3.9H86.7z M71.5,112.5V93.8h2.7h7.4V108c-1.8,1-3.3,2.6-4.2,4.5H71.5z M65.4,112.5v-19h2.4v19H65.4z M57.7,112.5   c-1.1-3.7-4.1-6.5-7.8-7.3V93.8h7.4h4.3v18.7H57.7z M46.1,112.5h-1.4H21.2c0.8-0.9,1.9-1.6,3.2-1.9c0.7-0.2,1.2-0.8,1.4-1.5   c0.7-4.9,4.9-8.5,9.8-8.5c4.4,0,8.2,2.8,9.5,6.9c0.3,0.8,1.1,1.4,1.9,1.3l0.4,0c0.1,0,0.1,0,0.2,0c2.7,0,5,1.6,6.1,3.9H46.1z    M36.9,68.1c0.4-0.6,0.5-1.3,0.2-2c-0.3-0.6-1-1-1.7-1H23.7l15.4-19.6c0.4-0.6,0.5-1.3,0.2-2c-0.3-0.6-1-1.1-1.7-1.1h-6.5   l14.3-18.9l2.8,3.7l-4.8,6.3c-0.4,0.6-0.5,1.3-0.2,2c0.3,0.6,1,1,1.7,1h8.4L34.5,60.6c-0.4,0.6-0.5,1.3-0.2,2   c0.3,0.6,1,1.1,1.7,1.1h14.8L31.1,90.1H20.5L36.9,68.1z M66.5,9.3l17.8,23.5h-8.5c-0.7,0-1.4,0.4-1.7,1.1c-0.3,0.6-0.2,1.4,0.2,2   l18.9,24.1H78.6c-0.7,0-1.4,0.4-1.7,1c-0.3,0.6-0.3,1.4,0.2,2l20,26.8H69.6h-1.1h-3.9h-1.1H36l20-26.8c0.4-0.6,0.5-1.3,0.2-2   c-0.3-0.6-1-1-1.7-1H39.8l18.9-24.1c0.4-0.6,0.5-1.3,0.2-2c-0.3-0.6-1-1.1-1.7-1.1h-8.5L66.5,9.3z M86,23.6l14.3,18.9h-6.5   c-0.7,0-1.4,0.4-1.7,1.1c-0.3,0.6-0.2,1.4,0.2,2l15.4,19.6H96.1c-0.7,0-1.4,0.4-1.7,1c-0.3,0.6-0.3,1.4,0.2,2l16.4,22H102   L82.3,63.7h14.8c0.7,0,1.4-0.4,1.7-1.1c0.3-0.6,0.2-1.4-0.2-2L79.7,36.6h8.4c0.7,0,1.4-0.4,1.7-1c0.3-0.6,0.2-1.4-0.2-2L84,26.2   L86,23.6z M86.7,100.7c-0.5,0.5-0.9,1-1.4,1.5v-8.4h1.4V100.7z M44.8,93.8h1.4v7.9c-0.4-0.5-0.9-1-1.4-1.4V93.8z"/></g></svg>